<svg xmlns="http://www.w3.org/2000/svg" viewBox="0 0 253.73 127.98"><path fill="#dd2074" d="M116.24 37.73c.57-.08 1.15-.14 1.72-.24a1.87 1.87 0 0 0 1.82-2c0-1.82 0-3.64-.1-5.46-.17-4-.38-7.94-.57-11.91l-.24-5.14a4.16 4.16 0 0 0-.13-.59h-.23c-.16.34-.34.67-.48 1q-5.04 11.6-10.04 23.29c-.17.4-.45 1-.76 1.06-.64.12-.68-.64-.9-1l-11.8-23.25c-.17-.35-.37-.69-.57-1.05-.49.22-.34.59-.35.88l-.27 12.47c0 2-.14 4.08-.16 6.12a10 10 0 0 0 .26 2.38 3.89 3.89 0 0 0 3.38 3.27 1.28 1.28 0 0 1 .75.39h-10v-.17c.26-.07.51-.18.78-.23a4 4 0 0 0 3.18-2.68 6.32 6.32 0 0 0 .46-2c.12-3.28.18-6.56.26-9.84.09-4 .17-8 .28-11.92a4.59 4.59 0 0 0-3.46-4.66 3.41 3.41 0 0 1-1.08-.41 3.83 3.83 0 0 1 .74-.13h6.23a1.76 1.76 0 0 1 1.76 1c.81 1.56 1.64 3.1 2.43 4.65l9.2 17.9c.2.38.42.74.74 1.32.27-.53.46-.86.62-1.2l9.41-21.54c1-2.29 1-2.2 3.31-2.1 1.46.07 2.92 0 4.38 0h1.14v.24c-.18 0-.36.1-.54.13-.4.06-.8.08-1.19.16a3.15 3.15 0 0 0-2.83 3.52c0 1.79.15 3.57.24 5.36l.87 17.15c0 .83.1 1.67.19 2.5.16 1.69.77 2.31 2.44 2.54a3.37 3.37 0 0 1 1.31.4h-12.21v-.23ZM37.67 5.99h9.75a1.42 1.42 0 0 1 0 .16 1.1 1.1 0 0 1-.3.16 5.77 5.77 0 0 0-3.85 2.29 12.54 12.54 0 0 0-2 3.63l-9.15 24.31a11.81 11.81 0 0 1-.44 1.12.64.64 0 0 1-1.18.08 7.09 7.09 0 0 1-.39-.78l-5.65-12c-.18-.38-.4-.74-.71-1.32-.28.67-.47 1.09-.64 1.53L18.6 36.99c-.17.44-.15 1.09-.84 1.13s-.76-.6-1-1Q10.61 23.84 4.43 10.6a39.8 39.8 0 0 0-1.24-2.43A3.24 3.24 0 0 0 .44 6.28c-.08 0-.15-.09-.45-.29h10.68v.19c-.33 0-.65.09-1 .16-1.18.24-1.62.88-1.31 2.05a12.9 12.9 0 0 0 .79 2.15q4.65 10 9.33 19.9c.18.37.38.74.68 1.29.25-.49.42-.76.53-1.05 1-2.61 2-5.23 3.07-7.83a1.81 1.81 0 0 0-.05-1.56c-1.84-3.85-3.65-7.71-5.48-11.56-.24-.5-.52-1-.8-1.44a3.87 3.87 0 0 0-2.64-2.07v-.14a.15.15 0 0 1 .1-.09 2 2 0 0 1 .43-.07h8.38a1.74 1.74 0 0 0 .05.22 3.33 3.33 0 0 1-.4.16c-.95.25-1.16.52-1 1.46a5.09 5.09 0 0 0 .38 1.14c1.09 2.35 2.2 4.68 3.31 7a4.13 4.13 0 0 0 .36.54 3.49 3.49 0 0 0 .42-.65c.67-1.73 1.35-3.46 2-5.21a11.58 11.58 0 0 0 .5-2c.23-1.43-.06-1.88-1.39-2.41v-.09c0-.02.06-.09.06-.09h6.87c.08 0 .16.1.24.14s0 .13-.06.13c-2.4.33-3.74 2-4.7 4-.69 1.44-1.23 3-1.83 4.45-.34.84-.61 1.72-1 2.54a2.16 2.16 0 0 0 .1 2.06c1.83 3.68 3.61 7.49 5.38 11.27.15.32.34.62.59 1.08a9.25 9.25 0 0 0 .47-.88c2.38-6.23 4.77-12.45 7.11-18.7a8.81 8.81 0 0 0 .55-2.54 2.85 2.85 0 0 0-2.5-3.2l-.6-.12v-.24Zm104.11 31.94h-11.94a.69.69 0 0 1 0-.13 5 5 0 0 1 .84-.22 4 4 0 0 0 2.92-1.74 25.47 25.47 0 0 0 2.16-3.66c2.67-5.87 5.26-11.78 7.88-17.68l3.35-7.8a2.09 2.09 0 0 1 .19-.4c.2-.26.4-.67.67-.75.45-.13.55.38.71.69l2 4 10.33 20.87c.44.88.9 1.76 1.4 2.61 1 1.76 2 3.58 4.3 4.13-2 .34-4-.12-5.94 0s-3.95.13-5.92.2a2.54 2.54 0 0 0 0-.29c.45-.07.89-.13 1.33-.22 1.31-.25 1.74-.9 1.4-2.17a7.87 7.87 0 0 0-.52-1.43c-1.83-3.74-3.68-7.46-5.49-11.2a1.25 1.25 0 0 0-1.27-.8h-7.77a1.12 1.12 0 0 0-1.18.75c-1.27 2.91-2.57 5.8-3.83 8.71a7.62 7.62 0 0 0-.49 1.89 3.38 3.38 0 0 0 2.56 4 23.14 23.14 0 0 0 2.34.49Zm4.45-25.74h-.32c-.64 1.42-1.3 2.83-1.91 4.26a30.8 30.8 0 0 0-1.79 4.27 35.91 35.91 0 0 0 8.13-.14ZM48.77 22.42c.09-6.77 2.89-11.51 8.39-14.56a18.47 18.47 0 0 1 14.36-1.87c6.33 1.78 10.1 6.13 11.32 12.49 1.9 9.89-4.78 17.45-12.78 19.59a17.48 17.48 0 0 1-9.93-.08c-6.22-2-9.78-6.33-11-12.64a25.1 25.1 0 0 1-.36-2.93Zm29.1.45c0-.48-.06-1.25-.12-2a19 19 0 0 0-2.48-8.31 11.63 11.63 0 0 0-9.52-6.12h-1.14a9.54 9.54 0 0 0-9 5.88 12.29 12.29 0 0 0-.71 2 23.48 23.48 0 0 0 1.48 16.2 14.26 14.26 0 0 0 3.07 4.23 11.32 11.32 0 0 0 3.54 2.24l.16.06a9.74 9.74 0 0 0 3.3.65h.08a10.43 10.43 0 0 0 4.34-.77h.07a10.36 10.36 0 0 0 4.88-4.65 19 19 0 0 0 2.09-9.35Zm121.12 16.05.31-.11c0-.46.06-.91.06-1.36v-24.3a25.57 25.57 0 0 1 .15-2.62 3.79 3.79 0 0 1 .9-2.32c.22.14.4.24.58.37 1.24.89 2.44 1.85 3.74 2.65a10.16 10.16 0 0 1 2.69 2.36c1.19 1.52 2.3 3.11 3.5 4.62a25.71 25.71 0 0 0 2.27 2.51c1.53 1.45 3.13 2.85 4.7 4.26 1.32 1.18 2.68 2.32 4 3.52.25.23.3.66.47 1.09-.45.09-.73.13-1 .21a.87.87 0 0 0-.52.37 1.54 1.54 0 0 0-.16 1c.1.77.66.3 1.06.39a1.07 1.07 0 0 0 1.44.73c.14 0 .32-.08.42 0a3.17 3.17 0 0 1 .52.45 2.33 2.33 0 0 1-.6.36 1.44 1.44 0 0 1-.53-.11c-.22.76.69.44.75 1l-1 1.1c-.65.7-1.36 1.34-1.93 2.09a3 3 0 0 0 .15 3.92 4.15 4.15 0 0 0 .44.49 1.76 1.76 0 0 1 .63 1.56 27.09 27.09 0 0 1-1 6.25 3.66 3.66 0 0 1-.21.53c-.1.22-.22.45-.35.68a17.74 17.74 0 0 1 9.53.07 19.37 19.37 0 0 1 3.26 1.31 4.23 4.23 0 0 0-1.25-.91c.42-.64.76-1.23 1.16-1.79 1.61-2.3 3.24-4.58 4.88-6.87.7-1 1.4-2 2.15-2.9a2 2 0 0 1 .28-.31c.27-.28.61-.55 1-.89l.27.76h.17v-.18c0-.57.05-1.13.07-1.66a2.17 2.17 0 0 1 .37-.07c.79.19 1.33.06 1.6-.36a1.88 1.88 0 0 0 .19-1.2c0-.46-.1-.93-.15-1.36a4.68 4.68 0 0 0 .86-.93 1.34 1.34 0 0 0 .18-.39 2.11 2.11 0 0 0-.27.18c-.21.2-.47.33-.62 0-.07-.15.07-.44.17-.63a.21.21 0 0 1 0-.06 1.23 1.23 0 0 1 .31-.22l.18-.15a1 1 0 0 0 .21-1.09c-.06-.19-.08-.4-.12-.59a3.8 3.8 0 0 0 .89-.54 1 1 0 0 0 .2-1.44 1.7 1.7 0 0 1 .06-1.84 39 39 0 0 0 2.65-6.93c.29-.94.66-1.85.93-2.8a2 2 0 0 1 .71-1.08 4.5 4.5 0 0 1 .42-.3 4.66 4.66 0 0 0 .54-.38 3.33 3.33 0 0 0 1-3.45 2.14 2.14 0 0 1 .19-1.59c.39-.7.75-1.41 1.11-2.13a2.05 2.05 0 0 0 .09-.56l-.19-.12c-.23.24-.49.46-.71.72l-.07.09c-.48.6-.92 1.23-1.38 1.84a1.54 1.54 0 0 1-.17.19 1.54 1.54 0 0 1-2.55-.32 3.55 3.55 0 0 0-.63-.74l-.25.1v.78c0 1.49.12 3 0 4.48-.12 2.26-1.62 3.93-2.7 5.77a.9.9 0 0 1-.15.18c-.28.29-.65.2-.89-.23a2.47 2.47 0 0 1-.25-1.14c0-1.75-.25-3.39-2.14-4.19a.74.74 0 0 1-.39-.37 4.12 4.12 0 0 0-1.23-1.54 3.46 3.46 0 0 0-2.9-1.2 2.13 2.13 0 0 1-.87-.06 3.76 3.76 0 0 0-2.87 0 .44.44 0 0 1-.32 0c-1.18-.35-2.08.36-3 .83a2.06 2.06 0 0 0-.58.4 2.19 2.19 0 0 0-.48.76 2.24 2.24 0 0 1-.59.87 1.33 1.33 0 0 1-.75.3 2.2 2.2 0 0 0-1.25.52 6.89 6.89 0 0 0-1.27 1.74 23.88 23.88 0 0 0-1.12 2.33c.22.74.46 1.41.61 2.11a1.47 1.47 0 0 1-.32 1.43 1.23 1.23 0 0 1-.27.22c-.59.4-1.12.11-1.61-.23-2-1.42-4-2.82-5.94-4.28a11.31 11.31 0 0 1-1.35-1.41c-1-1-1.87-2.15-2.92-3.1-1.23-1.13-2.61-2.1-3.89-3.18-.88-.75-1.71-1.55-2.54-2.35l-.19-.18a2.38 2.38 0 0 1-.73-2.07 12 12 0 0 0-.08-2.07 3.52 3.52 0 0 0-.29-.75c-.18.45-.28.71-.36 1a1.54 1.54 0 0 1-.33.67c-.24.25-.58.18-1.07-.19a4.16 4.16 0 0 1-.45-.4 7.72 7.72 0 0 1-1.87-3 15.12 15.12 0 0 0-.66-1.55l-.28.07a11.89 11.89 0 0 0 .12 1.2c.09.43.24.85.36 1.27l-.22.1c-.51-.76-1-1.52-1.62-2.39a2.26 2.26 0 0 0 .37 2.08 3.37 3.37 0 0 1 .71 1.91c-1.18-.24-1.5-1.53-2.65-1.85.21 1.61 1.79 2.2 2.43 3.5a20.39 20.39 0 0 0-2.5 0c-.75.1-1.54-.23-2.41.19.25.09.34.15.44.17a3.82 3.82 0 0 1 3.51 3.19 13.42 13.42 0 0 1 .37 3v16.86c0 .3-.06.61-.13 1.21-.47-.51-.76-.81-1-1.13l-15.52-18.26a86.29 86.29 0 0 1-3.48-4.36 2 2 0 0 0-1.84-.9h-7.22a3.8 3.8 0 0 0-.74.12 9.12 9.12 0 0 1 4 2.13 2.59 2.59 0 0 1 1 2.16v20.8a14 14 0 0 1-.2 2.5 4.8 4.8 0 0 1-1.69 3.11 4 4 0 0 1-2.11.85 3.83 3.83 0 0 0-.62.22c1.69.13 3.34.15 5 .12a30.6 30.6 0 0 0 4.88-.05.67.67 0 0 0-.38-.25 4.32 4.32 0 0 1-3.63-4.19 23.46 23.46 0 0 1-.14-2.51v-18.5a6.28 6.28 0 0 1 0-.87 4.91 4.91 0 0 1 .24-.82l24.21 28.24Zm16.63 43c.11 1.68.67 3.39-.23 5.15l.28.06 1.29.29a3.18 3.18 0 0 1 .09.74l-.41 4.91a40.62 40.62 0 0 0-.17 7.64 30.36 30.36 0 0 1 .22 3.93q-.13 4.59-.42 9.17c-.15 2.29-.41 4.58-.65 6.86a2.7 2.7 0 0 1-.61 1.6 3.56 3.56 0 0 0-.52 3.29h2.3a3.16 3.16 0 0 0 1.6-.42 2.29 2.29 0 0 0 .72-2 15.88 15.88 0 0 1 1.27-6.6 2 2 0 0 0 0-1.89 3.86 3.86 0 0 1-.33-3.26c.1-.35.16-.71.26-1.06.91-3.19 1.84-6.37 2.72-9.57a10.21 10.21 0 0 0 .37-2.69c0-1.86-.21-3.71-.3-5.57-.07-1.24-.16-2.48-.15-3.71a1.19 1.19 0 0 1 .17-.72c.13-.17.36-.23.75-.25 2.29-.16 4.59-.29 6.88-.41.71 0 .94.13 1.08.82a8.58 8.58 0 0 0 1.41 3c.35.55.73 1.09 1.1 1.64a7.71 7.71 0 0 1 1.2 3.13 18.08 18.08 0 0 0 .82 3c.76 2.09 1.6 4.14 2.39 6.22a12.47 12.47 0 0 1 .58 2c.58 3.08 1.22 6.15 1.66 9.25v.18a25.93 25.93 0 0 1 .31 8.2 4.64 4.64 0 0 0 .69 3.14 16.28 16.28 0 0 0 3.49-2.5 4.27 4.27 0 0 0 1-4.51 8.46 8.46 0 0 1-.34-2.69c0-.66.07-1.31.1-2a2.3 2.3 0 0 0-.82-2 2.66 2.66 0 0 1-.73-1 16.87 16.87 0 0 1-.62-2.1 37.1 37.1 0 0 1-1.17-7.32c-.09-1.9-.09-3.8-.27-5.67a13.23 13.23 0 0 0-2.22-6.55c-1-1.46-1.91-3-2.84-4.55-.2-.33-.35-.68-.55-1.08l1.16-.48a26.25 26.25 0 0 1-.63-6.42v-1.85a18.53 18.53 0 0 1-9.06 5.57 17.48 17.48 0 0 1-9.93 0 18.47 18.47 0 0 1-3-1.24c.05.07.05.19.06.32Z"/><path fill="#dd2074" d="M219.11 52.76c-1.69 2.85-2.29 6-2.83 9.23a60 60 0 0 0-.78 8c0 .73 0 1.45-.06 2.18v2.55s0 .46.05 1.43v.23a14.14 14.14 0 0 0 2.45 3.06 11.35 11.35 0 0 0 3.52 2.31 9.83 9.83 0 0 0 3.49.72h.04a10.65 10.65 0 0 0 4.24-.73l.23-.1a10.45 10.45 0 0 0 4.81-4.65 18.94 18.94 0 0 0 2.08-9.36c0-.47-.06-1.24-.12-2a19.3 19.3 0 0 0-2.48-8.31 11.63 11.63 0 0 0-9.52-6.13h-2.49a10 10 0 0 0-1.91.42c-.19.28-.38.53-.54.74a1.43 1.43 0 0 1-.14.23.59.59 0 0 1-.04.18Z"/><path fill="#3c3c3b" d="M170.04 82.9a1 1 0 0 1 1.08-.5c2.47 0 3.14-1 3.14-3.3V54.59c0-2.61-.62-3.2-3.2-3.37-.24 0-.48-.07-.94-.14.31-.22.44-.41.58-.42h9.95c3.17-.06 6.36-.31 9.45.63a22.17 22.17 0 0 1 4.34 1.7 14.27 14.27 0 0 1 7.83 12.23c.35 6-1.72 11.1-6.71 14.74a16.66 16.66 0 0 1-9.51 3.17c-1.74 0-3.49-.1-5.24-.13-2.95 0-5.91 0-8.86-.07-.59 0-1.18 0-1.91-.06Zm9.13-16.19v12.47a2.74 2.74 0 0 0 2.17 2.68 12.66 12.66 0 0 0 2.81.37c4.68.05 8.34-1.79 10.65-6a15.18 15.18 0 0 0 1.26-3.13 22.26 22.26 0 0 0 .37-10.11 16.54 16.54 0 0 0-2.74-6.73 10.64 10.64 0 0 0-6.62-4.49 14.63 14.63 0 0 0-5.44 0c-1.7.28-2.35 1.11-2.44 2.83v1.21Zm-58.91 15.83c.27 0 .54-.13.82-.16a4.07 4.07 0 0 0 3.46-2.81 9.51 9.51 0 0 0 .46-3.44V54.9a1.92 1.92 0 0 0-.72-1.61 7.11 7.11 0 0 0-4.12-2.09c-.09 0-.17-.1-.38-.22a2.08 2.08 0 0 1 .53-.31 4 4 0 0 1 .77 0c2.18 0 4.37.06 6.55 0a2.38 2.38 0 0 1 2.46 1.21 14.55 14.55 0 0 0 1.52 2q8.64 10.11 17.31 20.31c.25.29.51.57.92 1 .05-.5.1-.77.11-1V57.12a13 13 0 0 0-.39-2.91 3.72 3.72 0 0 0-3.27-3c-.2 0-.4-.09-.81-.19.32-.2.46-.35.62-.37a6.48 6.48 0 0 1 .88 0h7.32c.46 0 1-.23 1.48.31a3 3 0 0 1-.53.21 4.11 4.11 0 0 0-3.8 3.82 14.3 14.3 0 0 0-.22 2.61v26.29a3.25 3.25 0 0 1-.73-.32 4 4 0 0 1-.58-.65q-11.3-13.09-22.57-26.2c-.26-.3-.53-.59-.92-1a6.34 6.34 0 0 0-.15.84v20.25a10.48 10.48 0 0 0 .51 3 3.57 3.57 0 0 0 3.1 2.59 1.38 1.38 0 0 1 .71.34 6.11 6.11 0 0 1-2.54.2h-5.37a7.49 7.49 0 0 1-2.5-.12v-.28Zm-9.11 42.86a1.63 1.63 0 0 1 .42-.14 4.66 4.66 0 0 0 4.08-2.54 49.08 49.08 0 0 0 2.37-4.55c3.57-8 7.09-16 10.64-24 .19-.43.18-1.11.88-1.1s.65.62.85 1l12.24 24.69c.47.94 1 1.89 1.49 2.8 1 1.72 2 3.49 4.35 3.94-.16.09-.32.24-.48.25a11.45 11.45 0 0 1-1.31 0 62.4 62.4 0 0 0-9.07 0 2.23 2.23 0 0 1-1.69-.24 3.12 3.12 0 0 1 .62-.27c.43-.08.88-.08 1.3-.18 1.1-.26 1.44-.79 1.18-1.92a6.83 6.83 0 0 0-.5-1.44l-5.6-11.38c-.19-.38-.38-.66-.88-.66h-8.75c-.15.27-.29.49-.39.71-1.25 2.8-2.51 5.59-3.71 8.41a8 8 0 0 0-.61 2.31 3.33 3.33 0 0 0 2.65 3.83 14.68 14.68 0 0 0 1.61.29l.94.14c-.3.22-.43.39-.58.41a6.73 6.73 0 0 1-1.1 0 60 60 0 0 0-9.29 0c-1.06.08-1.06.08-1.67-.36Zm16.53-25.71c-1.36 3-2.66 5.77-3.84 8.67h8.09Zm-9.16-16.83h-12.41c.2-.17.31-.37.46-.39.43-.08.88-.07 1.31-.15a1.43 1.43 0 0 0 1.29-2 6.89 6.89 0 0 0-.48-1.33c-1.87-3.83-3.76-7.65-5.64-11.48-.16-.33-.34-.62-.8-.61h-8.76c-.13.13-.21.17-.23.23-1.37 3.06-2.74 6.12-4.08 9.19a7.64 7.64 0 0 0-.5 1.89 3.3 3.3 0 0 0 2.1 3.69 12.13 12.13 0 0 0 2 .47c.33.06.72 0 1 .31-.08.1-.12.2-.16.2h-1.63l-10.59-.11c.07-.42.39-.42.66-.43a4.14 4.14 0 0 0 3.44-2 26.52 26.52 0 0 0 2.09-3.71c3-6.57 5.87-13.18 8.79-19.77l2.52-5.7a4.37 4.37 0 0 1 .33-.69.5.5 0 0 1 .9 0 6.78 6.78 0 0 1 .51 1l12.09 24.52c.68 1.37 1.44 2.7 2.25 4a4.64 4.64 0 0 0 3.37 2.54c.1 0 .18.11.27.17l-.09.21ZM97.85 56.99a52.55 52.55 0 0 0-3.73 8.67c2.6 0 5.19.06 8-.06ZM78.99 74.28a1.71 1.71 0 0 1 .12.57c-.18 1.89-.39 3.77-.59 5.66a1.37 1.37 0 0 1-.93 1.32c-6.15 2.31-12.34 2.6-18.48.15a15.35 15.35 0 0 1-10-11.73 16 16 0 0 1 9.38-18.14 23.34 23.34 0 0 1 10.87-2 26.34 26.34 0 0 1 7.3 1.28 1.83 1.83 0 0 1 1.45 1.88c.1 1.9.31 3.78.47 5.67v.8l-.24.08-.39-.67a33 33 0 0 0-1.75-3.52c-2.35-3.6-5.79-5-10-4.58-5.25.51-8.76 3.44-10.57 8.29a20.12 20.12 0 0 0 .13 14.76 12.88 12.88 0 0 0 8.48 8.08 12.09 12.09 0 0 0 6.06.28 9.25 9.25 0 0 0 5.25-3.13 18.4 18.4 0 0 0 2.61-4.16c.17-.34.36-.66.55-1l.22.06Zm96.37 42.48a7.18 7.18 0 0 1 .08.9c-.13 2.32-.29 4.65-.42 7-.05 1-.16 1.15-1.15 1.15h-23.09c-.29 0-.67.14-.84-.4.2-.05.39-.12.58-.15.47-.06.95-.07 1.41-.15a2 2 0 0 0 2-2.11c.06-.62.06-1.24.06-1.86V96.5a2.24 2.24 0 0 0-2.41-2.41c-.32 0-.65 0-1-.07a5.22 5.22 0 0 1-.79-.3 5.14 5.14 0 0 1 .76-.23h12.24a2.17 2.17 0 0 0 0 .25 1.73 1.73 0 0 1-.47.27c-.4.06-.8 0-1.2.1a2.24 2.24 0 0 0-2.28 2.32v24.56a14.39 14.39 0 0 0 .08 1.86 1.6 1.6 0 0 0 1.56 1.56 23.35 23.35 0 0 0 7.18-.12 9 9 0 0 0 7-6.37 2.28 2.28 0 0 1 .69-1.12Zm2.72 8.58.81-.11c.51-.07 1-.1 1.52-.2a1.79 1.79 0 0 0 1.5-1.54 11.29 11.29 0 0 0 .19-1.74V97.47a8.32 8.32 0 0 0-.14-1.41 2 2 0 0 0-1.91-1.92c-.36-.06-.73 0-1.09-.09a1.64 1.64 0 0 1-.93-.37 2.14 2.14 0 0 1 .52-.18h12.53c-.22.58-.58.52-.87.56-.54.08-1.09.1-1.62.22a1.85 1.85 0 0 0-1.48 1.57 11.72 11.72 0 0 0-.19 2v23.51a10.17 10.17 0 0 0 .18 1.74 1.43 1.43 0 0 0 1.31 1.28c3 .27 5.92.55 8.77-.48a9.14 9.14 0 0 0 5.6-5.9c.12-.36 0-.9.7-1.08v1.75l-.36 6c-.05 1.08-.1 1.16-1.22 1.16h-23c-.29 0-.59-.08-.89-.11a3.26 3.26 0 0 1 .05-.33Z"/><path fill="#3c3c3b" fill-rule="evenodd" d="M193.69 56.23a16.54 16.54 0 0 1 2.74 6.76 16.54 16.54 0 0 0-2.74-6.76Zm26.14-4.52a9.5 9.5 0 0 0-5.77 5.37 11.38 11.38 0 0 0-.71 1.95 23.49 23.49 0 0 0 1.48 16.2c.19.4.4.79.62 1.17a14.09 14.09 0 0 0 2.45 3 11.35 11.35 0 0 0 3.52 2.31 11.35 11.35 0 0 1-3.52-2.31 14.14 14.14 0 0 1-2.45-3.06c-.22-.38-.43-.76-.62-1.16a23.54 23.54 0 0 1-1.48-16.19 12.29 12.29 0 0 1 .71-1.95 9.5 9.5 0 0 1 5.77-5.37 10 10 0 0 1 1.91-.42 10 10 0 0 0-1.91.46Zm9.39 30a10.5 10.5 0 0 1-4.24.73 10.65 10.65 0 0 0 4.24-.69Z"/><path fill="#3c3c3b" fill-rule="evenodd" d="M215.64 52.67c-5.5 3-8.3 7.79-8.39 14.55 0 .2 0 .42.06.67a15.23 15.23 0 0 0 .26 2.26c1 5.21 3.65 9.1 8 11.4a18.47 18.47 0 0 0 3 1.24 17.48 17.48 0 0 0 9.93 0 18.53 18.53 0 0 0 9.06-5.57 16.1 16.1 0 0 0 3.72-14c-1-5.18-3.68-9-8.06-11.24a19.37 19.37 0 0 0-3.23-1.22 17.74 17.74 0 0 0-9.53-.07l-.27.08a21.6 21.6 0 0 0-4.55 1.9Zm20.59 13c.06.76.1 1.53.12 2a19 19 0 0 1-2.08 9.32 10.45 10.45 0 0 1-4.74 4.58l-.23.1a10.5 10.5 0 0 1-4.24.73h-.07a9.83 9.83 0 0 1-3.49-.72 11.35 11.35 0 0 1-3.52-2.31 14.09 14.09 0 0 1-2.45-3 16.3 16.3 0 0 1-.62-1.17 23.49 23.49 0 0 1-1.56-16.21 11.38 11.38 0 0 1 .71-1.95 9.5 9.5 0 0 1 5.77-5.37 10 10 0 0 1 1.91-.42h2.49a11.6 11.6 0 0 1 9.52 6.13 19 19 0 0 1 2.48 8.29Z"/></svg>