<?xml version="1.0" standalone="no"?>
<!DOCTYPE svg PUBLIC "-//W3C//DTD SVG 20010904//EN"
 "http://www.w3.org/TR/2001/REC-SVG-20010904/DTD/svg10.dtd">
<svg version="1.0" xmlns="http://www.w3.org/2000/svg"
 width="260.000000pt" height="260.000000pt" viewBox="0 0 260.000000 260.000000"
 preserveAspectRatio="xMidYMid meet">
<metadata>
Created by potrace 1.14, written by Peter Selinger 2001-2017
</metadata>
<g transform="translate(0.000000,260.000000) scale(0.100000,-0.100000)"
fill="#000000" stroke="none">
<path d="M326 2589 c-61 -15 -150 -66 -201 -117 -26 -27 -62 -79 -83 -122
l-37 -75 0 -975 0 -975 32 -67 c38 -80 114 -164 182 -202 108 -58 62 -56 1101
-53 l955 2 68 32 c125 59 220 176 247 303 8 40 10 305 8 995 l-3 940 -28 59
c-27 58 -81 133 -122 169 -11 9 -54 34 -95 55 l-75 37 -955 2 c-557 1 -971 -3
-994 -8z"/>
</g>
</svg>
