<svg xmlns="http://www.w3.org/2000/svg" xmlns:xlink="http://www.w3.org/1999/xlink" style="display:none"><symbol id="chevron-left" viewBox="0 0 24 24"><path d="M8.8 12.73a1 1 0 010-1.46l4.94-5a1 1 0 011.46 0 1.05 1.05 0 010 1.47L11 12l4.21 4.23a1.05 1.05 0 010 1.47 1 1 0 01-1.46 0z" fill-rule="evenodd"/></symbol><symbol id="chevron-right" viewBox="0 0 24 24"><path d="M15.5 12a1 1 0 01-.3.73l-4.94 5a1 1 0 01-1.46 0 1.05 1.05 0 010-1.47L13 12 8.8 7.77a1.05 1.05 0 010-1.47 1 1 0 011.46 0l4.94 5a1 1 0 01.3.7z" fill-rule="evenodd"/></symbol><symbol id="facebook" viewBox="0 0 24 24"><path d="M12 2a10.07 10.07 0 00-1.56 20v-7H7.9v-2.94h2.54V9.84c0-2.52 1.49-3.91 3.77-3.91a15 15 0 012.24.2V8.6h-1.26a1.45 1.45 0 00-1.63 1.57v1.89h2.77L15.89 15h-2.33v7A10.07 10.07 0 0012 2z"/></symbol><symbol id="globe" viewBox="0 0 24 24"><path d="M3.05 11H7a19.68 19.68 0 011.24-6.44c.13-.32.27-.63.42-.92A9 9 0 003.05 11zM12 1a11 11 0 1011 11A11 11 0 0012 1zm0 2a1.2 1.2 0 00-.83.47A6 6 0 0010.1 5.3 17.72 17.72 0 009 11h6a17.72 17.72 0 00-1.1-5.7 6 6 0 00-1.07-1.83A1.2 1.2 0 0012 3zm5 8a19.68 19.68 0 00-1.22-6.44c-.13-.32-.27-.63-.42-.92A9 9 0 0121 11zm-2 2H9a17.72 17.72 0 001.08 5.7 6 6 0 001.07 1.83A1.2 1.2 0 0012 21a1.2 1.2 0 00.83-.47 6 6 0 001.07-1.83A17.72 17.72 0 0015 13zm.36 7.36c.15-.29.29-.6.42-.92A19.68 19.68 0 0017 13h4a9 9 0 01-5.66 7.36zm-6.68 0c-.15-.29-.29-.6-.42-.92A19.68 19.68 0 017 13H3a9 9 0 005.66 7.36z" fill-rule="evenodd"/></symbol><symbol id="heart"><path d="M7.5 11.5c-3-1.7-4.72-3.39-5.54-4.86a3.79 3.79 0 01-.3-3.67 3.14 3.14 0 015.32-.37l.52.65.52-.65a3.14 3.14 0 015.32.38 3.79 3.79 0 01-.3 3.67c-.82 1.47-2.54 3.16-5.54 4.85zm0-10.26a4.44 4.44 0 00-7 1.15 5.06 5.06 0 00.3 4.88c1 1.81 3 3.72 6.38 5.56l.32.17.32-.17c3.36-1.84 5.37-3.75 6.38-5.56a5.06 5.06 0 00.3-4.88 4.44 4.44 0 00-7-1.15z" fill="#e6062b" fill-rule="evenodd"/></symbol><symbol id="instagram" viewBox="0 0 24 24"><path d="M20.94 8.31a6.47 6.47 0 00-.42-2.21 4.6 4.6 0 00-2.63-2.63 6.8 6.8 0 00-2.18-.42H8.29a6.75 6.75 0 00-2.18.42A4.62 4.62 0 003.47 6.1a6.53 6.53 0 00-.41 2.18C3 9.24 3 9.55 3 12s0 2.75.06 3.71a6.53 6.53 0 00.41 2.18 4.65 4.65 0 002.64 2.61 6.46 6.46 0 002.18.44c1 0 1.27.06 3.71.06s2.75 0 3.71-.06a6.48 6.48 0 002.18-.41 4.65 4.65 0 002.64-2.63 6.53 6.53 0 00.41-2.18c0-1 .06-1.27.06-3.71s0-2.74-.06-3.7zm-9 8.28A4.61 4.61 0 1116.61 12 4.61 4.61 0 0112 16.59zm4.86-8.32a1.08 1.08 0 111.07-1.07 1.07 1.07 0 01-1.07 1.07z"/><path d="M12 15a3 3 0 10-3-3 3 3 0 003 3z"/></symbol><symbol id="linkedin" viewBox="0 0 24 24"><path d="M20 3H4a1 1 0 00-1 1v16a1 1 0 001 1h16a1 1 0 001-1V4a1 1 0 00-1-1zM8.34 18.34H5.67V9.75h2.67zM7 8.57A1.55 1.55 0 118.55 7 1.55 1.55 0 017 8.57zm11.34 9.77h-2.67v-4.18c0-1 0-2.28-1.39-2.28s-1.6 1.09-1.6 2.21v4.25H10V9.75h2.56v1.17a2.82 2.82 0 012.52-1.39c2.71 0 3.21 1.78 3.21 4.1v4.71z"/></symbol><symbol id="telegram" viewBox="0 0 24 24"><path d="M22 12A10 10 0 1112 2a10 10 0 0110 10zm-13.19-.92c-.94.42-1.91.86-2.8 1.37-.46.35.15.6.73.83l.27.11.21.07a2.43 2.43 0 002 .09c1-.61 2-1.31 2.95-2l.95-.69h.05c.28-.19.88-.6.66 0-.53.6-1.11 1.14-1.68 1.67-.39.37-.78.73-1.16 1.12s-.67.83-.3 1.22c.85.62 1.72 1.22 2.58 1.82l.85.59a.83.83 0 001.32-.54c.05-.28.1-.56.14-.85.26-1.56.52-3.12.75-4.69 0-.25.06-.49.1-.74.08-.59.17-1.19.2-1.79s-.77-.47-1.16-.33c-2 .79-4 1.64-6 2.5z" fill-rule="evenodd"/></symbol><symbol id="zoom-in" viewBox="0 0 24 24"><path d="M11.44 4.6a6.84 6.84 0 104.78 11.73A6.84 6.84 0 0011.44 4.6zM18.32 17a8.84 8.84 0 10-1.43 1.41l2.81 2.72a1 1 0 101.4-1.44zM11.4 7.4a1 1 0 011 1v2h2a1 1 0 010 2h-2v2a1 1 0 01-2 0v-2h-2a1 1 0 010-2h2v-2a1 1 0 011-1z" fill-rule="evenodd"/></symbol></svg>