<svg xmlns="http://www.w3.org/2000/svg" viewBox="0 0 174.44 87.99"><path fill="#dd2074" d="M79.91 25.99c.4-.06.79-.1 1.18-.17a1.29 1.29 0 0 0 1.26-1.35c0-1.25 0-2.5-.07-3.75l-.39-8.19L81.72 9a3 3 0 0 0-.09-.41h-.16l-.33.69-6.9 16c-.13.28-.31.69-.53.74-.44.07-.47-.44-.62-.73l-8.1-16.02c-.12-.24-.26-.47-.4-.72-.33.15-.23.41-.23.61q-.11 4.28-.19 8.57c0 1.4-.1 2.8-.11 4.21a6.41 6.41 0 0 0 .17 1.63 2.69 2.69 0 0 0 2.33 2.25.88.88 0 0 1 .52.27H60.2v-.12a5.34 5.34 0 0 1 .53-.16 2.7 2.7 0 0 0 2.17-1.82 4.34 4.34 0 0 0 .32-1.38c.08-2.26.12-4.51.18-6.77.06-2.73.11-5.46.19-8.19a3.16 3.16 0 0 0-2.38-3.21 2.16 2.16 0 0 1-.74-.27 2.28 2.28 0 0 1 .52-.11h4.28a1.19 1.19 0 0 1 1.21.71c.51 1.05 1.12 2.11 1.66 3.22q3.18 6.15 6.33 12.31c.13.26.28.51.51.9.18-.36.31-.58.42-.82l6.47-14.81c.69-1.58.69-1.58 2.28-1.48h3.84v.17l-.37.09c-.28 0-.55 0-.82.11a2.16 2.16 0 0 0-1.94 2.44c0 1.23.1 2.46.16 3.68l.6 11.79c0 .58.07 1.16.13 1.73.11 1.16.53 1.58 1.68 1.74a2.35 2.35 0 0 1 .9.28h-8.42v-.16ZM25.89 4.1h6.71a.49.49 0 0 0 0 .11.71.71 0 0 1-.21.11 4 4 0 0 0-2.61 1.57 8.94 8.94 0 0 0-1.36 2.5q-3.16 8.37-6.34 16.73c-.1.25-.18.52-.3.77a.45.45 0 0 1-.79.1 5.36 5.36 0 0 1-.26-.54q-1.93-4.12-3.89-8.23c-.12-.26-.27-.5-.49-.9-.19.46-.32.75-.43 1.05-1 2.68-2.06 5.38-3.11 8.06-.11.3-.1.75-.57.78s-.52-.41-.66-.7Q7.29 16.38 3.05 7.29c-.27-.57-.55-1.13-.86-1.68A2.25 2.25 0 0 0 .3 4.31c-.06 0-.11-.06-.3-.19h7.34v.14l-.67.1c-.81.17-1.11.6-.9 1.41a8.74 8.74 0 0 0 .54 1.48l6.42 13.68c.12.26.26.51.46.89.17-.34.29-.52.37-.72.7-1.79 1.39-3.6 2.11-5.39a1.22 1.22 0 0 0 0-1.07l-3.8-7.95c-.16-.34-.35-.66-.54-1a2.7 2.7 0 0 0-1.82-1.41v-.11a1.35 1.35 0 0 1 .29 0h5.76a.83.83 0 0 0 0 .15 1.62 1.62 0 0 1-.28.11c-.65.17-.79.36-.67 1a3.18 3.18 0 0 0 .26.79c.75 1.61 1.51 3.21 2.28 4.82.05.11.13.2.24.38a2.35 2.35 0 0 0 .29-.45c.46-1.19.93-2.38 1.36-3.58A8.32 8.32 0 0 0 19.39 6c.15-1 0-1.29-1-1.65v-.13h4.73c.06 0 .12.07.17.1s0 .09 0 .09a4.2 4.2 0 0 0-3.12 2.58c-.48 1-.85 2-1.26 3.06-.23.58-.42 1.18-.69 1.74a1.49 1.49 0 0 0 .07 1.42c1.26 2.59 2.48 5.2 3.72 7.8l.4.74a5 5 0 0 0 .33-.6c1.64-4.28 3.28-8.56 4.89-12.85a6 6 0 0 0 .36-1.75 2 2 0 0 0-1.71-2.2l-.42-.08v-.16Z"/><path fill="#fff" d="M116.9 56.99a.7.7 0 0 1 .74-.34c1.7 0 2.16-.67 2.16-2.27V37.53c0-1.8-.42-2.2-2.2-2.32-.16 0-.33 0-.64-.1.21-.15.3-.28.4-.28h6.87a20.49 20.49 0 0 1 6.49.43 14.92 14.92 0 0 1 3 1.19 9.83 9.83 0 0 1 5.39 8.41 11 11 0 0 1-4.67 10.13 11.44 11.44 0 0 1-6.53 2.18c-1.2 0-2.41-.07-3.61-.08-2 0-4.06 0-6.09-.05h-1.31Zm6.28-11.13v8.57a1.89 1.89 0 0 0 1.49 1.85 9 9 0 0 0 1.93.25 7.65 7.65 0 0 0 7.32-4.1 10.53 10.53 0 0 0 .87-2.15 15.19 15.19 0 0 0 .22-7 11.28 11.28 0 0 0-1.88-4.62 7.34 7.34 0 0 0-4.55-3.09 10 10 0 0 0-3.74 0 1.76 1.76 0 0 0-1.68 2v.82ZM82.67 56.74l.57-.11a2.8 2.8 0 0 0 2.38-1.93 6.76 6.76 0 0 0 .37-2.37V37.74a1.33 1.33 0 0 0-.5-1.11 4.88 4.88 0 0 0-2.83-1.43c-.06 0-.12-.07-.26-.16.16-.09.25-.19.37-.21a3 3 0 0 1 .52 0c1.5 0 3 .05 4.51 0a1.63 1.63 0 0 1 1.69.83 8.67 8.67 0 0 0 1 1.37l11.89 14 .63.71c0-.34.07-.53.08-.71V39.29a9 9 0 0 0-.27-2 2.56 2.56 0 0 0-2.24-2c-.14 0-.28-.07-.56-.13.22-.14.32-.24.43-.26a5.86 5.86 0 0 1 .59 0h5c.32 0 .68-.15 1 .22a1.77 1.77 0 0 1-.37.14 2.85 2.85 0 0 0-2.61 2.59 10.83 10.83 0 0 0-.14 1.8v18.07a2 2 0 0 1-.5-.22 2.92 2.92 0 0 1-.4-.45L87.55 38.99l-.63-.7a4.23 4.23 0 0 0-.11.58v13.92a6.9 6.9 0 0 0 .35 2.06 2.44 2.44 0 0 0 2.13 1.77 1.07 1.07 0 0 1 .49.24 4.34 4.34 0 0 1-1.75.14h-1.88l-1.79-.01a5 5 0 0 1-1.72-.08v-.19Zm-6.26 29.47a1.41 1.41 0 0 1 .29-.1 3.23 3.23 0 0 0 2.81-1.74 34.43 34.43 0 0 0 1.63-3.13c2.45-5.5 4.87-11 7.31-16.5.13-.29.13-.75.6-.75s.45.43.59.7q4.21 8.47 8.41 17c.33.65.66 1.3 1 1.93.71 1.18 1.4 2.4 3 2.71-.11.06-.22.17-.33.17h-.9a41.93 41.93 0 0 0-6.24 0 1.55 1.55 0 0 1-1.16-.17 2.89 2.89 0 0 1 .43-.18c.3-.06.6-.06.89-.12.76-.19 1-.55.81-1.32a4.54 4.54 0 0 0-.34-1l-3.85-7.82c-.13-.27-.26-.46-.6-.46h-6c-.1.19-.2.34-.27.49-.86 1.92-1.73 3.84-2.55 5.78a5.5 5.5 0 0 0-.42 1.59 2.28 2.28 0 0 0 1.82 2.63 8.33 8.33 0 0 0 1.11.2l.65.1c-.21.15-.3.27-.41.28a4.71 4.71 0 0 1-.75 0 42.59 42.59 0 0 0-6.39 0c-.73.06-.73.06-1.15-.25Zm11.37-17.67c-.93 2.06-1.83 4-2.64 6h5.56Zm-6.3-11.55h-8.49c.14-.13.21-.26.32-.28.29-.05.6 0 .89-.1a1 1 0 0 0 .89-1.36 5 5 0 0 0-.33-.91l-3.87-7.89c-.12-.23-.24-.43-.55-.43h-6c-.09.08-.14.11-.16.15-.94 2.11-1.88 4.21-2.8 6.32a4.89 4.89 0 0 0-.34 1.3 2.25 2.25 0 0 0 1.43 2.53 8.15 8.15 0 0 0 1.38.33c.23 0 .5 0 .66.21 0 .07-.08.14-.11.14h-1.12l-7.35-.01c.05-.28.27-.28.46-.29a2.86 2.86 0 0 0 2.36-1.4 19.39 19.39 0 0 0 1.44-2.55l6-13.59 1.73-3.92a3.42 3.42 0 0 1 .23-.47.34.34 0 0 1 .62 0 4.59 4.59 0 0 1 .35.66l8.34 16.84c.47.94 1 1.85 1.55 2.75a3.18 3.18 0 0 0 2.32 1.74.47.47 0 0 1 .18.12l-.02.11ZM67.27 39.18a35.24 35.24 0 0 0-2.56 6h5.46Z"/><path fill="#dd2074" d="M97.47 26.07h-8.21v-.08a2.94 2.94 0 0 1 .58-.16 2.72 2.72 0 0 0 2-1.2 16.76 16.76 0 0 0 1.49-2.51c1.83-4 3.62-8.1 5.41-12.15l2.37-5.37a1.34 1.34 0 0 1 .13-.27c.14-.18.27-.46.46-.52s.38.26.49.47l1.37 2.76 7.11 14.35c.3.61.61 1.21 1 1.79.71 1.22 1.4 2.46 3 2.85a32.65 32.65 0 0 1-4.08 0c-1.36.06-2.71.1-4.07.14v-.2c.3-.05.61-.09.91-.15.9-.17 1.19-.62 1-1.49a5.86 5.86 0 0 0-.36-1l-3.77-7.69a.85.85 0 0 0-.88-.55H97.9a.77.77 0 0 0-.81.51c-.87 2-1.77 4-2.63 6a4.87 4.87 0 0 0-.33 1.3 2.33 2.33 0 0 0 1.75 2.76c.53.16 1.07.22 1.61.33l-.02.08Zm3.06-17.69h-.22c-.44 1-.9 1.94-1.31 2.93a21.63 21.63 0 0 0-1.24 2.93 24.94 24.94 0 0 0 5.6-.09l-2.83-5.77Z"/><path fill="#fff" d="M54.27 51.06a1.16 1.16 0 0 1 .09.4l-.41 3.88a1 1 0 0 1-.64.92 17.06 17.06 0 0 1-12.7.1 10.57 10.57 0 0 1-6.86-8.07 11 11 0 0 1 6.45-12.46 16 16 0 0 1 7.48-1.36 18.18 18.18 0 0 1 5 .88 1.26 1.26 0 0 1 1 1.3c.07 1.3.21 2.6.32 3.9a5 5 0 0 1 0 .55h-.16l-.27-.46a22.69 22.69 0 0 0-1.2-2.42 6.85 6.85 0 0 0-6.86-3.15 8.17 8.17 0 0 0-7.26 5.7 13.84 13.84 0 0 0 .09 10.22 8.87 8.87 0 0 0 5.84 5.55 8.38 8.38 0 0 0 4.16.2 6.35 6.35 0 0 0 3.65-2.18 12.53 12.53 0 0 0 1.8-2.86c.11-.23.25-.45.37-.68h.15Zm66.28 29.21a4.11 4.11 0 0 1 .06.62l-.29 4.8c0 .68-.11.79-.79.79h-15.87c-.2 0-.46.09-.58-.28a3.34 3.34 0 0 1 .4-.1c.32 0 .65 0 1-.1a1.4 1.4 0 0 0 1.34-1.46 10.79 10.79 0 0 0 0-1.27V66.34a1.54 1.54 0 0 0-1.65-1.66h-.68a2.75 2.75 0 0 1-.55-.2 4.65 4.65 0 0 1 .53-.16h8.4v.17a1.08 1.08 0 0 1-.32.19c-.27 0-.55 0-.83.06a1.56 1.56 0 0 0-1.56 1.6v16.8a9.07 9.07 0 0 0 .06 1.28 1.09 1.09 0 0 0 1.07 1.08 16 16 0 0 0 4.94-.09 6.21 6.21 0 0 0 4.85-4.42 1.59 1.59 0 0 1 .48-.77Zm1.87 5.9.57-.08c.34 0 .69-.07 1-.14a1.23 1.23 0 0 0 1-1.06 6.77 6.77 0 0 0 .13-1.19V67.01a6.14 6.14 0 0 0-.09-1 1.4 1.4 0 0 0-1.32-1.32c-.25 0-.5 0-.75-.06a1.17 1.17 0 0 1-.64-.26 1.69 1.69 0 0 1 .36-.12h8.61c-.15.4-.4.36-.6.38-.37.06-.75.08-1.11.16a1.26 1.26 0 0 0-1 1.08 7.52 7.52 0 0 0-.14 1.34V83.4a6.77 6.77 0 0 0 .13 1.19 1 1 0 0 0 .9.88 13.65 13.65 0 0 0 6-.33 6.23 6.23 0 0 0 3.84-4.05c.09-.25 0-.62.49-.74v1.2c-.08 1.37-.18 2.75-.25 4.12 0 .74-.07.8-.84.8h-15.72a4.38 4.38 0 0 1-.62-.08v-.23Z"/><path fill="#dd2074" d="M33.53 15.41c.06-4.65 2-7.91 5.76-10a12.76 12.76 0 0 1 9.88-1.32 10.39 10.39 0 0 1 7.82 8.59c1.31 6.8-3.28 12-8.79 13.47a12.08 12.08 0 0 1-6.82 0 10.66 10.66 0 0 1-7.6-8.69 19.41 19.41 0 0 1-.25-2.05Zm20 .31c0-.33 0-.86-.08-1.38a13.16 13.16 0 0 0-1.7-5.71 8 8 0 0 0-6.55-4.21h-.78a6.55 6.55 0 0 0-6.21 4 8.65 8.65 0 0 0-.49 1.34 16.17 16.17 0 0 0 1 11.14 9.78 9.78 0 0 0 2.11 2.91 8 8 0 0 0 2.43 1.59h.11a7.1 7.1 0 0 0 2.27.45h.06a7.17 7.17 0 0 0 3-.54 7.1 7.1 0 0 0 3.35-3.19 13.12 13.12 0 0 0 1.44-6.43Zm83.3 11.03.22-.07V9.04a15.39 15.39 0 0 1 .11-1.8 2.6 2.6 0 0 1 .61-1.6c.15.1.28.17.4.26.85.61 1.67 1.27 2.57 1.82a6.86 6.86 0 0 1 1.85 1.62c.82 1.05 1.58 2.14 2.41 3.18a15.93 15.93 0 0 0 1.56 1.72c1 1 2.14 2 3.23 2.93.91.81 1.84 1.6 2.73 2.42.17.16.2.46.32.75-.31.06-.51.09-.7.14a.62.62 0 0 0-.35.26 1.07 1.07 0 0 0-.11.71c.06.53.45.2.73.27a.74.74 0 0 0 1 .5.42.42 0 0 1 .29 0 3.47 3.47 0 0 1 .36.31 1.73 1.73 0 0 1-.41.25 1 1 0 0 1-.39-.07c-.14.52.48.3.52.72l-.71.76c-.45.48-.94.92-1.33 1.43a2.07 2.07 0 0 0 .1 2.7 2 2 0 0 0 .31.33 1.24 1.24 0 0 1 .43 1.08 18.34 18.34 0 0 1-.59 4.26 1.35 1.35 0 0 1-.14.37 7 7 0 0 1-.24.47 12.05 12.05 0 0 1 6.55 0 11.8 11.8 0 0 1 2.25.86 3.07 3.07 0 0 0-.86-.62c.28-.44.52-.85.79-1.24q1.66-2.37 3.35-4.72l1.48-2a2 2 0 0 1 .19-.22l.67-.6.19.51h.11v-.12c0-.39 0-.78.05-1.15a1.09 1.09 0 0 1 .25-.05c.54.13.92 0 1.11-.25a1.33 1.33 0 0 0 .12-.82c0-.32-.07-.64-.1-.93a3.08 3.08 0 0 0 .6-.64 1.62 1.62 0 0 0 .13-.27l-.19.12c-.15.14-.33.23-.43 0s0-.29.12-.43c0-.06.14-.1.2-.15l.13-.1a.7.7 0 0 0 .15-.75 3 3 0 0 1-.09-.41 2.29 2.29 0 0 0 .61-.38.71.71 0 0 0 .14-1 1.19 1.19 0 0 1 0-1.27 26.1 26.1 0 0 0 1.86-4.71c.2-.65.46-1.28.64-1.93a1.49 1.49 0 0 1 .49-.74 3.06 3.06 0 0 1 .29-.21 3.47 3.47 0 0 0 .37-.26 2.27 2.27 0 0 0 .7-2.36 1.47 1.47 0 0 1 .13-1.09c.27-.49.52-1 .76-1.47a1.17 1.17 0 0 0 .07-.38l-.13-.06c-.17.16-.34.32-.49.49l-.05.07c-.33.41-.63.84-.95 1.26a.69.69 0 0 1-.11.13 1.06 1.06 0 0 1-1.72-.25 2.18 2.18 0 0 0-.45-.52l-.17.07v.53c0 1 .08 2.06 0 3.08-.08 1.56-1.11 2.71-1.86 4a.64.64 0 0 1-.1.13c-.19.19-.44.14-.61-.17a1.69 1.69 0 0 1-.18-.78c0-1.2-.16-2.33-1.47-2.88a.49.49 0 0 1-.26-.25 2.78 2.78 0 0 0-.9-1.05 2.39 2.39 0 0 0-2-.86 1.31 1.31 0 0 1-.59 0 2.61 2.61 0 0 0-2 0 .33.33 0 0 1-.22 0c-.81-.24-1.43.25-2.09.57a1.3 1.3 0 0 0-.4.28 1.45 1.45 0 0 0-.33.52 1.54 1.54 0 0 1-.4.59.84.84 0 0 1-.52.21 1.54 1.54 0 0 0-.86.36 4.76 4.76 0 0 0-.81 1.15 15.14 15.14 0 0 0-.75 1.6c.15.51.32 1 .42 1.45a1 1 0 0 1-.22 1 .65.65 0 0 1-.18.15c-.41.28-.77.08-1.11-.16-1.36-1-2.74-1.93-4.08-2.93a7.93 7.93 0 0 1-.94-1c-.66-.71-1.28-1.47-2-2.13s-1.8-1.44-2.68-2.19c-.6-.51-1.17-1.06-1.74-1.61l-.13-.12a1.67 1.67 0 0 1-.51-1.43 7.5 7.5 0 0 0 0-1.42 2.29 2.29 0 0 0-.2-.52c-.12.32-.2.49-.25.67a1 1 0 0 1-.22.46c-.17.17-.4.12-.74-.13a2.7 2.7 0 0 1-.31-.28 5.21 5.21 0 0 1-1.37-2.09c-.12-.34-.3-.65-.45-1h-.19a7.58 7.58 0 0 0 .08.82c.06.3.17.58.25.88l-.16.07-1.11-1.58a1.5 1.5 0 0 0 .26 1.42 2.43 2.43 0 0 1 .48 1.32c-.78-.19-1-1.07-1.8-1.29.14 1.11 1.22 1.51 1.67 2.41a16.21 16.21 0 0 0-1.72 0c-.52.07-1.06-.15-1.65.14a2.64 2.64 0 0 0 .29.11 2.64 2.64 0 0 1 2.39 2.17 9.71 9.71 0 0 1 .26 2.08v11.59a8 8 0 0 1-.09.83c-.32-.35-.53-.56-.71-.78L124.89 7.62c-.82-1-1.63-2-2.39-3a1.4 1.4 0 0 0-1.27-.62h-5a3 3 0 0 0-.51.07 6.23 6.23 0 0 1 2.78 1.47 1.79 1.79 0 0 1 .68 1.49v14.29a11.1 11.1 0 0 1-.13 1.73 3.36 3.36 0 0 1-1.17 2.13 2.89 2.89 0 0 1-1.45.59 2.1 2.1 0 0 0-.44.22c1.15.08 2.29.1 3.42.08a20.94 20.94 0 0 0 3.36 0 .56.56 0 0 0-.26-.17 3 3 0 0 1-2.5-2.88 16.53 16.53 0 0 1-.1-1.72V8.53a4 4 0 0 1 0-.6 3.5 3.5 0 0 1 .17-.57l16.71 19.39Zm11.4 29.56c.08 1.16.47 2.33-.15 3.54h.19l.89.2a3 3 0 0 1 .06.51l-.28 3.37a27.91 27.91 0 0 0-.12 5.25 20.37 20.37 0 0 1 .15 2.7q-.09 3.16-.29 6.31c-.1 1.58-.28 3.15-.44 4.72a1.93 1.93 0 0 1-.42 1.1 2.43 2.43 0 0 0-.36 2.26h1.58a2.13 2.13 0 0 0 1.1-.29 1.58 1.58 0 0 0 .5-1.41 10.74 10.74 0 0 1 .87-4.54 1.34 1.34 0 0 0 0-1.29 2.68 2.68 0 0 1-.23-2.24l.18-.74c.63-2.19 1.27-4.37 1.87-6.57a6.87 6.87 0 0 0 .25-1.85c0-1.28-.13-2.55-.2-3.83-.05-.85-.11-1.7-.1-2.55a.75.75 0 0 1 .11-.49c.09-.12.25-.16.52-.18 1.57-.1 3.15-.2 4.73-.28.49 0 .65.09.74.56a6.19 6.19 0 0 0 1 2.1c.24.38.5.75.76 1.13a5.48 5.48 0 0 1 .83 2.15 11.83 11.83 0 0 0 .56 2.1c.52 1.43 1.1 2.84 1.64 4.27a8.26 8.26 0 0 1 .4 1.37c.4 2.12.83 4.23 1.14 6.36v.11a17.85 17.85 0 0 1 .21 5.65 3.19 3.19 0 0 0 .47 2.13 10.6 10.6 0 0 0 2.4-1.72 2.92 2.92 0 0 0 .71-3.09 6.14 6.14 0 0 1-.23-1.85c0-.45.05-.9.07-1.35a1.56 1.56 0 0 0-.57-1.4 1.87 1.87 0 0 1-.5-.73 11.41 11.41 0 0 1-.43-1.44 25.85 25.85 0 0 1-.8-5c-.06-1.3-.06-2.61-.18-3.9a9.25 9.25 0 0 0-1.53-4.5c-.71-1-1.31-2.08-1.95-3.13-.14-.23-.24-.47-.38-.74l.8-.33a18.23 18.23 0 0 1-.43-4.41v-1.23a12.76 12.76 0 0 1-6.25 3.87 12 12 0 0 1-6.83 0 12.34 12.34 0 0 1-2.06-.85Z"/><path fill="#fff" fill-rule="evenodd" d="M133.16 38.66a11.28 11.28 0 0 1 1.88 4.62 11.28 11.28 0 0 0-1.88-4.62ZM44.42 4.39a6.55 6.55 0 0 0-6.21 4 7.73 7.73 0 0 0-.49 1.34 16.12 16.12 0 0 0 1 11.14 9.44 9.44 0 0 0 2.11 2.91 7.91 7.91 0 0 0 2.43 1.59 8 8 0 0 1-2.43-1.59 9.78 9.78 0 0 1-2.11-2.91 16.17 16.17 0 0 1-1-11.14 8.65 8.65 0 0 1 .49-1.34 6.55 6.55 0 0 1 6.21-4Zm1.29 21.51a7.18 7.18 0 0 0 3-.54 7.17 7.17 0 0 1-3 .54Zm105.42 9.65a6.53 6.53 0 0 0-4 3.69 8 8 0 0 0-.49 1.34 16.24 16.24 0 0 0 1 11.14c.13.27.28.54.43.8a9.46 9.46 0 0 0 1.68 2.1 7.77 7.77 0 0 0 2.42 1.58 7.62 7.62 0 0 1-2.41-1.58 9.5 9.5 0 0 1-1.69-2.11 9.87 9.87 0 0 1-.42-.79 16.12 16.12 0 0 1-1-11.14 7.17 7.17 0 0 1 .49-1.34 6.52 6.52 0 0 1 4-3.69 6.33 6.33 0 0 1 1.32-.29 6.33 6.33 0 0 0-1.33.29Zm6.46 20.65a7.2 7.2 0 0 1-2.92.5 7.38 7.38 0 0 0 2.92-.5Z"/><path fill="#dd2074" d="M150.63 36.27a17.89 17.89 0 0 0-1.94 6.35 40.65 40.65 0 0 0-.54 5.5v4.4a9.5 9.5 0 0 0 1.69 2.11 7.62 7.62 0 0 0 2.41 1.58 6.64 6.64 0 0 0 2.4.5h.05a7.38 7.38 0 0 0 2.92-.5l.15-.07a7.16 7.16 0 0 0 3.29-3.15 13.09 13.09 0 0 0 1.43-6.43c0-.32 0-.85-.09-1.38a13.07 13.07 0 0 0-1.7-5.71 8 8 0 0 0-6.55-4.21h-1.72a6.33 6.33 0 0 0-1.32.29l-.37.51a1 1 0 0 0-.09.16Z"/><path fill="#fff" fill-rule="evenodd" d="M148.25 36.21c-3.78 2.09-5.71 5.35-5.77 10v.46a11.74 11.74 0 0 0 .18 1.55 10.66 10.66 0 0 0 5.53 7.84 12.34 12.34 0 0 0 2.06.85 12 12 0 0 0 6.83 0 12.76 12.76 0 0 0 6.23-3.83 11.1 11.1 0 0 0 2.56-9.64 10.38 10.38 0 0 0-5.54-7.72 11.8 11.8 0 0 0-2.25-.86 12.05 12.05 0 0 0-6.55 0h-.18a14.42 14.42 0 0 0-3.1 1.35Zm14.15 8.93c.05.53.07 1.06.09 1.38a13.09 13.09 0 0 1-1.43 6.47 7.16 7.16 0 0 1-3.26 3.15l-.15.07a7.2 7.2 0 0 1-2.92.5h-.05a6.64 6.64 0 0 1-2.4-.5 7.77 7.77 0 0 1-2.42-1.58 9.46 9.46 0 0 1-1.68-2.1c-.15-.26-.3-.53-.43-.8a16.24 16.24 0 0 1-1-11.14 8 8 0 0 1 .49-1.34 6.53 6.53 0 0 1 4-3.69 6.33 6.33 0 0 1 1.32-.29h1.73a8 8 0 0 1 6.54 4.21 13.07 13.07 0 0 1 1.57 5.66Z"/></svg>