<svg xmlns="http://www.w3.org/2000/svg" viewBox="0 0 24 24"><path d="M3.05,11H7A19.68,19.68,0,0,1,8.24,4.56c.13-.32.27-.63.42-.92A9,9,0,0,0,3.05,11ZM12,1A11,11,0,1,0,23,12,11,11,0,0,0,12,1Zm0,2a1.2,1.2,0,0,0-.83.47A6,6,0,0,0,10.1,5.3,17.72,17.72,0,0,0,9,11h6A17.72,17.72,0,0,0,13.9,5.3a6,6,0,0,0-1.07-1.83A1.2,1.2,0,0,0,12,3Zm5,8a19.68,19.68,0,0,0-1.22-6.44c-.13-.32-.27-.63-.42-.92A9,9,0,0,1,21,11Zm-2,2H9a17.72,17.72,0,0,0,1.08,5.7,6,6,0,0,0,1.07,1.83A1.2,1.2,0,0,0,12,21a1.2,1.2,0,0,0,.83-.47A6,6,0,0,0,13.9,18.7,17.72,17.72,0,0,0,15,13Zm.36,7.36c.15-.29.29-.6.42-.92A19.68,19.68,0,0,0,17,13h4A9,9,0,0,1,15.34,20.36Zm-6.68,0c-.15-.29-.29-.6-.42-.92A19.68,19.68,0,0,1,7,13h-4A9,9,0,0,0,8.66,20.36Z" fill-rule="evenodd"/></svg>