<svg xmlns="http://www.w3.org/2000/svg" width="15" height="13" viewBox="0 0 15 13"><path d="M8,12c-3-1.7-4.72-3.39-5.54-4.86a3.79,3.79,0,0,1-.3-3.67A3.14,3.14,0,0,1,7.48,3.1L8,3.75l.52-.65a3.14,3.14,0,0,1,5.32.38,3.79,3.79,0,0,1-.3,3.67C12.72,8.62,11,10.31,8,12ZM8,1.74A4.44,4.44,0,0,0,1,2.89,5.06,5.06,0,0,0,1.3,7.77c1,1.81,3,3.72,6.38,5.56L8,13.5l.32-.17c3.36-1.84,5.37-3.75,6.38-5.56A5.06,5.06,0,0,0,15,2.89,4.44,4.44,0,0,0,8,1.74Z" transform="translate(-0.5 -0.5)" fill="#e6062b" fill-rule="evenodd"/></svg>