<svg xmlns="http://www.w3.org/2000/svg" viewBox="0 0 24 24"><path d="M20.94,8.31a6.47,6.47,0,0,0-.42-2.21,4.6,4.6,0,0,0-2.63-2.63,6.8,6.8,0,0,0-2.18-.42c-1,0-1.27,0-3.71,0s-2.75,0-3.71,0a6.75,6.75,0,0,0-2.18.42A4.62,4.62,0,0,0,3.47,6.1a6.53,6.53,0,0,0-.41,2.18C3,9.24,3,9.55,3,12s0,2.75.06,3.71a6.53,6.53,0,0,0,.41,2.18A4.65,4.65,0,0,0,6.11,20.5a6.46,6.46,0,0,0,2.18.44c1,0,1.27.06,3.71.06s2.75,0,3.71-.06a6.48,6.48,0,0,0,2.18-.41,4.65,4.65,0,0,0,2.64-2.63,6.53,6.53,0,0,0,.41-2.18c0-1,.06-1.27.06-3.71S21,9.27,20.94,8.31Zm-9,8.28A4.61,4.61,0,1,1,16.61,12,4.61,4.61,0,0,1,12,16.59ZM16.8,8.27A1.08,1.08,0,1,1,17.87,7.2,1.07,1.07,0,0,1,16.8,8.27Z"/><path d="M12,15a3,3,0,1,0-3-3A3,3,0,0,0,12,15Z"/></svg>