<svg xmlns="http://www.w3.org/2000/svg" viewBox="0 0 24 24"><path d="M22,12A10,10,0,1,1,12,2,10,10,0,0,1,22,12ZM8.81,11.08c-.94.42-1.91.86-2.8,1.37-.46.35.15.6.73.83l.27.11.21.07a2.43,2.43,0,0,0,2,.09c1-.61,2-1.31,2.95-2l.95-.69.05,0c.28-.19.88-.6.66,0-.53.6-1.11,1.14-1.68,1.67-.39.37-.78.73-1.16,1.12s-.67.83-.3,1.22c.85.62,1.72,1.22,2.58,1.82l.85.59a.83.83,0,0,0,1.32-.54c.05-.28.1-.56.14-.85.26-1.56.52-3.12.75-4.69,0-.25.06-.49.1-.74.08-.59.17-1.19.2-1.79s-.77-.47-1.16-.33c-2,.79-4,1.64-6,2.5Z" fill-rule="evenodd"/></svg>